<?xml version="1.0" encoding="UTF-8" standalone="no"?><svg xmlns="http://www.w3.org/2000/svg" viewBox="0 0 213.64 20.03"><defs><style>.cls-1{fill:#bdd85e;}.cls-2{fill:#fff;}</style></defs><g id="Layer_2" data-name="Layer 2"><g id="Layer_1-2" data-name="Layer 1"><path class="cls-1" d="M.3.86,9.53,4.62a.22.22,0,0,0,.16,0L18.9.86a.22.22,0,0,1,.28.29l-4,9.21a.25.25,0,0,0,0,.17l4,9.19a.22.22,0,0,1-.29.28L9.69,15.93a.17.17,0,0,0-.17,0L.31,20A.21.21,0,0,1,0,19.74l3.71-9.21a.22.22,0,0,0,0-.16L0,1.13A.21.21,0,0,1,.3.86Z"/><path class="cls-2" d="M37.44,19.7H34.09V12.25L26.59.81H30.5l5.29,8.37L41.14.81h3.8l-7.5,11.36Z"/><path class="cls-2" d="M51.29,20a7.38,7.38,0,0,1-7.56-7.4A7.6,7.6,0,1,1,51.29,20Zm0-12A4.28,4.28,0,0,0,47,12.58a4.4,4.4,0,0,0,4.34,4.61,4.29,4.29,0,0,0,4.32-4.56A4.41,4.41,0,0,0,51.29,8Z"/><path class="cls-2" d="M71.62,5.45h3.27V19.7H71.62V17.49A5.13,5.13,0,0,1,67.17,20c-3.22,0-5.08-2.16-5.08-5.48V5.45h3.27v8.1c0,2.21,1.1,3.48,3,3.48s3.21-1.32,3.21-3.53Z"/><path class="cls-2" d="M87.36,19.7H84V3.89H78V.81H93.35V3.89h-6Z"/><path class="cls-2" d="M104.1,5.45h3.27V19.7H104.1V17.49A5.13,5.13,0,0,1,99.65,20c-3.21,0-5.08-2.16-5.08-5.48V5.45h3.27v8.1c0,2.21,1.11,3.48,3,3.48s3.21-1.32,3.21-3.53Z"/><path class="cls-2" d="M119.57,20a5.81,5.81,0,0,1-4.83-2.51V19.7h-3.26V0h3.26V7.83a5.68,5.68,0,0,1,4.83-2.67c3.38,0,6.64,2.67,6.64,7.42S123,20,119.57,20Zm-.75-12a4.29,4.29,0,0,0-4.16,4.59,4.29,4.29,0,0,0,4.16,4.59c2.24,0,4.07-1.76,4.07-4.59S121,8,118.82,8Z"/><path class="cls-2" d="M136.15,17.36a5.2,5.2,0,0,0,3.86-1.7l1.92,1.7A7.2,7.2,0,0,1,136.1,20a7.12,7.12,0,0,1-7.32-7.42c0-4.11,2.89-7.45,7-7.45,4.53,0,6.82,3.56,6.82,7.69,0,.3,0,.57,0,.89H132.05A4,4,0,0,0,136.15,17.36Zm3.19-5.78c-.22-2.11-1.46-3.75-3.62-3.75-2,0-3.4,1.54-3.7,3.75Z"/><path class="cls-2" d="M161.64,8.75c4,1,6.07,2.4,6.07,5.56,0,3.56-2.78,5.66-6.75,5.66a11.61,11.61,0,0,1-7.88-3l2-2.37A8.72,8.72,0,0,0,161,17c2.06,0,3.35-.94,3.35-2.4s-.75-2.11-4.26-2.92c-4-1-6.29-2.15-6.29-5.66,0-3.3,2.7-5.51,6.45-5.51a10.45,10.45,0,0,1,6.85,2.38l-1.78,2.51a8.58,8.58,0,0,0-5.13-1.95c-1.94,0-3.07,1-3.07,2.27C157.16,7.23,158,7.88,161.64,8.75Z"/><path class="cls-2" d="M180.92,15.06h-.11L174.9,6.21V19.7h-3.27V.81h3.54l5.75,8.93L186.66.81h3.54V19.7h-3.32V6.15Z"/><path class="cls-2" d="M204.35,15.06h-.11l-5.91-8.85V19.7h-3.26V.81h3.53l5.75,8.93L210.1.81h3.54V19.7h-3.32V6.15Z"/></g></g></svg>